<svg xmlns="http://www.w3.org/2000/svg" viewBox="0 0 24 24">
  <path fill="#D97757" d="m4.714 15.956 4.718-2.648.079-.23-.079-.128h-.231l-8.638-.461-.534-.705.055-.352.48-.322 8.668.741.388-.158-.237-.194-6.997-4.774-.364-.461-.158-1.008.656-.722.88.061 5.856 4.441.146-.103-.146-.346L6.602 3.073l-.17-.62c-.061-.255-.104-.467-.104-.728l-.042-1.591L6.7 0l.996.134.419.364 3.667 7.571.243.832.091.255h.158v-.146l.673-7.25.376-.911.747-.492.583.279.48.686-.067.443-1.208 6.422h.212l3.607-4.189.85-.905.546-.431h1.032l.759 1.129-.34 1.166-4.055 5.55.073.109.188-.018 7.067-1.202.832.389.091.394-.328.807-7.711 1.761-.043.031.049.06 5.779.407.789.522.474.638-.079.486-1.214.619-6.776-1.627h-.182v.109l5.704 5.209.128.577-.322.455-.34-.049-5.105-4.025h-.127v.17l2.908 4.82.121 1.081-.17.352-.607.213-.668-.122-3.863-5.589-.14.079-.674 7.255-.315.37-.729.28-.607-.462-.322-.747 1.692-7.01-.012-.043-.14.018-5.337 6.758-.413.164-.716-.37.067-.662.401-.589 4.754-6.005-.006-.158h-.055l-6.338 4.116-1.13.146-.485-.455.061-.747.231-.243Z"/>
</svg>
